:SAMPLES-PER-SECOND 30
:FRAME-RANGE 1-2091
:FULLY-SPECIFIED
:DEGREES
1634
root  -31.9342 39.403 -22.0182 -177.656 -34.1961 176.822
RightUpLeg  -28.7367 -18.269 -2.30054
RightLeg  40.371 -15.4967 -13.9276
RightFoot  -4.91482 -0.565289 9.45081
RightToes  5.82063e-011 0 -3.6325e-017
Spine  9.18797 -0.942141 -3.17918
Spine1  1.34854 -0.810623 -1.44829
HEad  -6.637 55.8356 -11.3581
LeftShoulder1  1.7177 -1.27231 -29.9097
LeftArm  56.9484 -19.5938 -32.9785
LeftForeArm  1.85266 -13.2607 -15.1466
LeftHand  -0.337264 -2.92918 4.93839
RightShoulder  6.8238 8.57679 49.4899
RightArm  37.2255 -5.08896 16.9706
RightForeArm  -1.84334 25.1488 5.48382
RightHand  0.438384 2.7534 6.03436
LeftUpLeg  -8.30929 8.37025 -2.37557
LeftLeg  15.9634 -4.19705 -3.28503
LeftFoot  -7.47638 0.00252112 1.2585
LeftToes  -6.27584e-011 -2.25241e-010 2.80627e-011
1635
root  -32.1577 39.4565 -22.4577 -177.388 -32.9812 176.066
RightUpLeg  -26.3541 -21.5758 -1.69773
RightLeg  33.1847 -16.612 -11.602
RightFoot  -4.0135 -0.541973 8.02282
RightToes  5.82063e-011 0 -3.6325e-017
Spine  8.50799 -0.853979 -3.40268
Spine1  1.83702 -0.852411 -0.861298
HEad  -6.69828 57.7543 -10.7508
LeftShoulder1  1.82837 -1.6921 -29.1253
LeftArm  46.1258 -23.8563 -34.1507
LeftForeArm  10.7638 -10.1537 -16.6321
LeftHand  -0.270823 -2.39743 4.24397
RightShoulder  6.67441 8.38618 49.184
RightArm  36.2123 -5.22206 17.2306
RightForeArm  0.642187 26.2288 5.60219
RightHand  0.430592 2.69695 5.96963
LeftUpLeg  -6.53211 8.15654 -2.64035
LeftLeg  14.5374 -3.38574 -3.3988
LeftFoot  -7.85221 0.00500948 1.38648
LeftToes  -6.27584e-011 -2.25241e-010 2.80627e-011
1636
root  -32.3818 39.4227 -22.9317 -177.176 -31.8268 175.223
RightUpLeg  -23.7214 -25.544 -0.883123
RightLeg  27.3878 -17.3133 -9.70711
RightFoot  -2.24203 -0.570781 6.97151
RightToes  5.82063e-011 0 -3.6325e-017
Spine  7.9183 -1.13364 -3.29002
Spine1  2.10841 -1.0517 -1.26633
HEad  -6.10317 58.834 -9.71142
LeftShoulder1  1.80449 -1.63896 -29.0219
LeftArm  52.2029 -27.6438 -34.3382
LeftForeArm  2.82751 -12.0168 -15.9366
LeftHand  -0.205771 -2.27363 3.31509
RightShoulder  6.77532 8.61071 49.0011
RightArm  36.7224 -5.17715 17.7628
RightForeArm  1.57387 25.7577 5.44575
RightHand  0.401292 2.89585 5.40042
LeftUpLeg  -4.9824 7.91609 -3.04812
LeftLeg  13.8562 -0.847969 -3.10038
LeftFoot  -8.66492 0.0592998 -0.309851
LeftToes  -6.27584e-011 -2.25241e-010 2.80627e-011
1637
root  -32.585 39.4354 -23.4719 -177.41 -30.0613 174.744
RightUpLeg  -20.6296 -28.8662 0.151078
RightLeg  22.5671 -15.6761 -7.23225
RightFoot  -3.71304 -0.100202 1.12376
RightToes  5.82063e-011 0 -3.6325e-017
Spine  7.43662 -1.16534 -2.77348
Spine1  2.48541 -1.04511 -1.4604
HEad  -5.65862 59.0659 -9.73599
LeftShoulder1  1.87874 -1.84455 -29.0643
LeftArm  65.5823 -30.0937 -34.1981
LeftForeArm  -14.9364 -15.9189 -13.9166
LeftHand  -0.089846 -1.67651 1.63304
RightShoulder  7.0091 9.09523 48.7391
RightArm  38.2972 -5.09423 18.0888
RightForeArm  -0.00261706 24.6325 5.27358
RightHand  0.43886 3.03043 5.8201
LeftUpLeg  -2.77142 8.11419 -2.86331
LeftLeg  12.5896 0.570365 -3.44938
LeftFoot  -9.14905 0.0677182 -0.667356
LeftToes  -6.27584e-011 -2.25241e-010 2.80627e-011
1638
root  -32.7869 39.3451 -24.0101 -178.295 -27.8589 175.63
RightUpLeg  -17.5302 -28.6594 1.1146
RightLeg  18.9858 -15.6624 -6.02333
RightFoot  -6.48451 0.0115931 -1.30918
RightToes  5.82063e-011 0 -3.6325e-017
Spine  7.66893 -1.16586 -0.46403
Spine1  2.32688 -0.995032 -1.30472
HEad  -5.3711 59.4777 -9.88118
LeftShoulder1  1.89294 -1.91326 -28.8779
LeftArm  60.5955 -34.4689 -34.6294
LeftForeArm  -13.478 -14.5915 -14.9634
LeftHand  -0.0483712 -1.77343 0.944115
RightShoulder  7.26165 9.56311 48.6845
RightArm  40.3205 -4.94291 18.0809
RightForeArm  -2.67836 23.3102 5.1991
RightHand  0.475314 3.16319 6.2127
LeftUpLeg  -2.45388 12.7021 -2.27846
LeftLeg  15.1433 -2.05578 -2.02012
LeftFoot  -11.2737 0.0686014 -1.6356
LeftToes  -6.27584e-011 -2.25241e-010 2.80627e-011
1639
root  -32.9351 39.1219 -24.4871 -179.351 -25.0022 177.407
RightUpLeg  -17.545 -24.4141 2.61784
RightLeg  21.2293 -16.7281 -7.15971
RightFoot  -7.42688 0.00867095 -1.72493
RightToes  5.82063e-011 0 -3.6325e-017
Spine  8.37172 -1.117 2.84552
Spine1  1.83745 -0.656773 -1.58518
HEad  -6.72719 59.8855 -11.5763
LeftShoulder1  1.93787 -2.04659 -28.8486
LeftArm  53.3226 -39.3447 -35.0314
LeftForeArm  -9.73487 -12.5969 -16.2114
LeftHand  -0.0523121 -1.6546 1.01484
RightShoulder  7.60825 10.2684 48.3901
RightArm  40.2635 -4.39019 18.063
RightForeArm  -3.17732 21.4372 6.10971
RightHand  0.497889 3.26027 6.43739
LeftUpLeg  -3.92513 16.0426 -0.710532
LeftLeg  20.6273 -2.69991 -0.792882
LeftFoot  -13.9146 0.0165058 -2.97815
LeftToes  -6.27584e-011 -2.25241e-010 2.80627e-011
1640
root  -33.0082 38.9314 -24.9301 179.873 -21.3834 179.023
RightUpLeg  -17.5077 -19.555 4.27939
RightLeg  22.8583 -17.3264 -8.051
RightFoot  -8.25445 -0.0181134 -1.40187
RightToes  5.82063e-011 0 -3.6325e-017
Spine  9.11283 -1.13649 5.09369
Spine1  1.53596 -0.448698 -1.58532
HEad  -9.46575 61.0541 -14.3851
LeftShoulder1  1.90421 -2.12286 -27.7508
LeftArm  48.6858 -43.1022 -35.2611
LeftForeArm  -9.43034 -11.1677 -17.0741
LeftHand  -0.0494331 -1.19796 0.855835
RightShoulder  8.38492 11.7554 48.1211
RightArm  35.7455 -3.37989 17.836
RightForeArm  0.993978 18.2699 8.68227
RightHand  0.496061 3.4478 6.26257
LeftUpLeg  -7.32523 15.9834 1.12854
LeftLeg  29.3208 0.612534 0.71818
LeftFoot  -14.186 -0.104979 -7.63821
LeftToes  -6.27584e-011 -2.25241e-010 2.80627e-011
